<?xml version="1.0" encoding="UTF-8"?><svg id="uuid-db3f2be9-e5ec-4207-88bc-b89d5a9bdd85" xmlns="http://www.w3.org/2000/svg" xmlns:xlink="http://www.w3.org/1999/xlink" viewBox="0 0 542.37 305.09"><defs><clipPath id="uuid-8e33986a-765c-4099-bb18-40ab7e3c10a4"><rect x=".62" y="-2" width="542.37" height="305.09" rx="11.62" ry="11.62" style="fill:none;"/></clipPath><radialGradient id="uuid-9849a1e7-7893-4739-b217-44cdb269becf" cx="267.12" cy="149.98" fx="267.12" fy="149.98" r="221.38" gradientTransform="translate(5.98 29.35) scale(.99 .8)" gradientUnits="userSpaceOnUse"><stop offset="0" stop-color="#001b3f"/><stop offset=".23" stop-color="#001736"/><stop offset=".6" stop-color="#000d1f"/><stop offset="1" stop-color="#000"/></radialGradient><radialGradient id="uuid-77d77b8f-855e-4e93-bbd9-8a3c82553787" cx="270.65" cy="142.59" fx="270.65" fy="142.59" r="86.76" gradientTransform="translate(-2.14 27.87) scale(1.01 .8)" xlink:href="#uuid-9849a1e7-7893-4739-b217-44cdb269becf"/></defs><rect x="-136.55" y="-134.34" width="1965.95" height="1217.24" style="fill:#232323;"/><g style="clip-path:url(#uuid-8e33986a-765c-4099-bb18-40ab7e3c10a4);"><rect x=".05" y="-3.8" width="541.95" height="306.63" style="fill:url(#uuid-9849a1e7-7893-4739-b217-44cdb269becf);"/><ellipse cx="270.47" cy="142.12" rx="87.39" ry="86.89" style="fill:url(#uuid-77d77b8f-855e-4e93-bbd9-8a3c82553787);"/><path d="M308.37,177.96l12.46,4.06c3.34,1.09,5.43,3.42,5.98,6.84.59,3.65,1.41,7.19,2.26,10.67.05.28-.1.6-.38.84-3.31,2.81-6.62,5.61-10.31,7.76l-3.1-6.94c-.08,2.88.19,5.75.63,8.5-8.84,5.73-19.27,9.42-29.65,11.28-.17-.16-.31-.3-.15-.62l11.97-24.03-3.95-3.36c.15-.3.67-.42,1.02-.37.78.12.8-.53,1.14-.72.42-.24,1.27.28,1.58-.19l-3.15-15.24c-.23-1.14-.54-2.07-.83-3.05.23-.19.55-.02.88.09l13.59,4.47Z" style="fill:#ed6966;"/><path d="M253.75,220.84c-10.23-1.87-20.25-5.7-29-11.17.15.03.39.03.48-.11.21-.33.75-7.39.59-8.34l-3.32,7.04c-3.72-2.33-7.25-5-10.59-8.03-.11-.1.23-.64-.03-.57,1.09-3.48,1.69-7.07,2.46-10.85.51-2.52,1.7-5.32,4.47-6.28l14.39-4.96,13.41-4.47c.4.38-.14.81-.24,1.3l-3.65,17.36c1.06-.16,1.59-.05,2.15.66.26.33,1.09.13,1.27.73l-3.6,3.12,11.85,24.15c-.27.23-.53.22-.63.41Z" style="fill:#ed6966;"/><path d="M282.73,189.11l-.33,1.5-8.37,31.5c.87.1-7.09.33-7.4.03l-8.51-31.96-.35-1.35c8.07,2.25,16.88,2.78,24.95.29Z" style="fill:#fffeff;"/><path d="M282.7,221.6c-2.89.52-5.84.84-8.67.51l8.37-31.5,7.43.75c.55.06.59.63.84.85,1.42,1.21,2.79,2.17,4.33,3.32-.03.88.1,1.85-.34,2.71l-11.97,23.37Z" style="fill:#ed6866;"/><path d="M266.64,222.14c-2.85.44-5.97-.3-8.93-.6-.21-1.11-.8-2.06-1.36-3.16l-10.56-20.58c-.35-.68-.06-1.58-.33-2.32,1.07-1.11,2.82-1.48,3.4-2.76.19-.42.99-1.13,1.58-1.25l7.5-.81c.09-.22-.05-.54.19-.47l8.51,31.96Z" style="fill:#ed6866;"/><path d="M256.39,169.16c-.98.8-2.12,1.23-3.37,1.86l4.76,17.8.35,1.35c-.25-.07-.1.25-.19.47l-7.5.81c-.58.13-1.39.84-1.58,1.25-.58,1.28-2.33,1.65-3.4,2.76.28.74-.02,1.64.33,2.32l10.56,20.58c.56,1.1,1.15,2.05,1.36,3.16-1.34-.14-2.64-.45-3.96-.69.11-.19.36-.18.63-.41l-11.85-24.15,3.6-3.12c-.18-.6-1.01-.4-1.27-.73-.56-.71-1.1-.82-2.15-.66l3.65-17.36c.1-.49.65-.92.24-1.3.35-.12.43-.17.7-.42,1.34-1.24,2.66-2.88,4.63-3.08l4.45-.45Z" style="fill:#de4e4d;"/><path d="M293.62,172.92c.15.12.24.34.28.48.28.97.59,1.91.83,3.05l3.15,15.24c-.31.47-1.16-.06-1.58.19-.33.19-.36.84-1.14.72-.35-.05-.88.07-1.02.37l3.95,3.36-11.97,24.03c-.16.32-.02.45.15.62l-3.56.64,11.97-23.37c.44-.86.3-1.83.34-2.71-1.54-1.15-2.91-2.11-4.33-3.32-.26-.22-.3-.79-.84-.85l-7.43-.75.33-1.5,4.86-18.2c-1.37-.42-2.11-.99-2.9-1.54,5.89-.2,5.77,1.02,8.93,3.56Z" style="fill:#dd4d4d;"/><path d="M224.74,209.67l-2.26-1.41,3.32-7.04c.16.95-.38,8.01-.59,8.34-.09.14-.32.13-.48.11Z" style="fill:#e95050;"/><path d="M318.38,208.13c-.71.61-1.71,1.06-2.47,1.56-.44-2.74-.71-5.62-.63-8.5l3.1,6.94Z" style="fill:#e95150;"/><path d="M235.63,130.72c1.63,1.47,3.29,3.75,6.13,2.7,3.22,8.09,8.68,14.28,15.69,19.37.3.22.4.5.36.78-.16,1.13.07,2.28.07,3.42l-.03,8.56c0,1.59-.43,2.79-1.46,3.62l-4.45.45c-1.97.2-3.29,1.84-4.63,3.08-1.21.06-2.79,1.13-3.83,1.03-.46-5.07-1.53-9.93-2.8-15.04-2.16-8.66-3.46-17.27-4.43-26.12-.08-.7.07-1.08-.86-1.42-.13-.19-.13-.6.24-.42Z" style="fill:#351a15;"/><path d="M297.27,173.53c-.08-.18-.34.3-.5.25l-2.25-.71c-.32-.1-.59-.33-.9-.15-3.17-2.54-3.04-3.75-8.93-3.56-.61-.43-1.23-.5-1.54-1.6-.37-1.31-.55-2.74-.62-4.19l-.25-5.79v-3.9c7.58-5.29,13.62-11.49,17.09-20.3,2.83.52,3.74-1.11,5.41-2.33-.11.22-.34.47-.48.85-.72,9.09-1.83,17.94-4.09,26.79-1.27,4.99-2.22,9.74-2.95,14.63Z" style="fill:#361a15;"/><path d="M297.27,173.53c.73-4.89,1.68-9.65,2.95-14.63,2.26-8.85,3.37-17.71,4.09-26.79.14-.38.37-.62.48-.85.27-.56.84-1.21,1.3-1.62l1.31-1.15c-.28,12-.85,23.65-1.8,35.5-.33,4.17-.86,8.04-1.62,12.17l-6.34-2.03c0-.41-.3-.41-.38-.59Z" style="fill:#492724;"/><path d="M235.38,130.27l.25.44c-.37-.18-.37.23-.24.42.93.34.78.72.86,1.42.97,8.84,2.27,17.46,4.43,26.12,1.27,5.1,2.35,9.97,2.8,15.04-.34-.03-.36.31-.62.4l-5.58,1.84c-.99-5.64-1.62-11.32-2.01-17.27l-1.9-29.44c-.01-.22.07-.54.18-.58.1-.04.27.11.52.21.09.04-.31.27-.1.34,1.22.4-.61.45,1.39,1.06Z" style="fill:#4a2825;"/><path d="M257.72,79.74c-1.16,3.43-4.44,7.64-6.72,10.85-2.74,3.85-5.52,7.56-7.74,11.6-1.94,2.83-3.42,6.07-4.41,9.53-.73,2.55-.44,4.92-.47,7.62-.72-.73-1.01-1.58-1.53-2.38-1.26-1.97-3.98.75-4.12.99-.09.08-.19.05-.26.01-.21-.12-.06-.19-.05-.27s.51.04.52-.15c0-2.86.04-5.47-.25-8.4,1.07-.19,1.75-.79,2.4-1.58,2.73-3.32,3.35-6.89,7.45-11.1l6.43-6.6c3.05-3.13,5.94-6.43,8.2-9.97.08-.12.46-.3.54-.16Z" style="fill:#4e2b28;"/><path d="M308.37,177.96l-13.59-4.47c-.33-.11-.65-.28-.88-.09-.04-.14-.13-.36-.28-.48.31-.18.58.05.9.15l2.25.71c.16.05.42-.42.5-.25s.39.18.38.59l6.34,2.03c.76-4.13,1.29-7.99,1.62-12.17.94-11.85,1.52-23.49,1.8-35.5l-1.31,1.15c1.51-2.73,3.71-6.14,2.87-9.74-.43-1.84-1.96-3.71-3.94-3.7-1.22,0-1.42,1.59-1.58,2.34-.06-.95-.92,1.89-1.13,1.67-.56-3.53-1.75-6.85-3.84-9.6-1.05-1.38-2.13-2.62-3.91-3.4-5.94-2.63-11.73-5.39-17.48-8.53-4.02-2.2-7.6-4.63-11.08-7.6-3.85-3.29-6.25-7.24-8.29-11.34-.07-.15-.46.03-.54.16-2.27,3.54-5.16,6.84-8.2,9.97l-6.43,6.6c-4.1,4.21-4.72,7.78-7.45,11.1-.65.79-1.33,1.39-2.4,1.58.29,2.92.25,5.53.25,8.4,0,.19-.5.07-.52.15s-.16.15.05.27c.07.04.16.07.26-.01-2.79,4.66,1.05,9.51,2.65,12.33-2-.62-.17-.66-1.39-1.06-.21-.07.19-.3.1-.34-.25-.1-.42-.24-.52-.21-.11.04-.2.36-.18.58l1.9,29.44c.38,5.96,1.02,11.63,2.01,17.27l5.58-1.84c.25-.08.27-.43.62-.4,1.04.1,2.62-.97,3.83-1.03-.27.25-.35.3-.7.42l-13.41,4.47c-1-5.32-1.28-10.67-1.63-16.23l-1.63-25.93c-.61-9.68-.53-19.12-.23-28.8.36-11.35,2.59-21.45,9.37-30.66,4.9-6.42,11.51-11.23,19.82-10.73,7.72-4.04,16.82-4.79,24.94-1.35,12.27,5.21,22.78,16.5,25.62,29.6.96,4.42,1.2,8.67,1.29,13.11l.31,14.22c.31,13.89-.47,27.53-1.27,41.4-.31,5.42-.61,10.56-1.43,15.74Z" style="fill:#5a3534;"/><path d="M305.43,98.85c.19.49-1.41-1.21-1.46-1.76s-.7-.62-.94-.89c-3.8-4.26-8.63-6.37-14.08-7.6-7.68-1.74-14.65-5.42-21.02-10.1,7.73,3.14,15.21,5.98,23.21,8.13,6.23,1.67,11.66,5.99,14.28,12.22Z" style="fill:#724948;"/><path d="M299.78,96.54c-.83-.31-1.61-1.04-2.46-1.44-2.65-1.25-5.75-1.85-9.23-2.78-8.02-2.15-15.5-5.89-21.68-11.52-.4-.37-.89-.68-.82-1.13,6.34,4.11,12.75,7.01,19.66,9.33l6.33,2.12c2.58.87,4.74,2.21,6.95,3.81.56.4.92.92,1.25,1.61Z" style="fill:#724a49;"/><path d="M303.75,86.2c-.58-.06,3.12,3.55,3.13,4.56-9.72-9.59-22.12-16.11-35.24-20.28,2.01-.62,3.7.1,5.55.55,9.99,2.43,19,7.75,26.2,15.04.27.11.3.12.36.13Z" style="fill:#724949;"/><path d="M236.87,92.94c-1.85.87,2.04-4.75,2.22-4.98,2.52-3.44,5.59-6.28,9.06-8.8,1.5-1.09,2.91-2.32,4.91-2.55-1.3,1.68-3.15,2.35-4.68,3.66-4.43,3.81-8.27,7.96-11.5,12.67Z" style="fill:#704947;"/><path d="M236.25,97.54c-.3-.32-.03-.59-.3-.76l2.92-5.47c2.3-4.32,6.01-7.63,10.21-9.81-5.26,4.95-9.86,9.6-12.83,16.04Z" style="fill:#6f4847;"/><path d="M282.28,157.79l.25,5.79c.06,1.45.25,2.88.62,4.19.31,1.11.93,1.18,1.54,1.6.8.56,1.54,1.12,2.9,1.54l-4.86,18.2c-8.07,2.49-16.88,1.97-24.95-.29l-4.76-17.8c1.25-.63,2.38-1.07,3.37-1.86s1.45-2.03,1.46-3.62l.03-8.56c5.6,3.99,12.17,8.1,19.27,4.39,1.94-1.02,3.47-2.4,5.14-3.58Z" style="fill:#f0b592;"/><path d="M298.48,110.61c-.94-.25-1.99-.87-2.82-1.32-.08-.57-.63-.79-1.1-1.16-2.44-1.95-5.41-2.93-8.49-2.66-1.78-1.03-3.74-1.72-5.73-2.67-3.98-1.91-7.82-3.83-11.35-6.5-4.16-3.14-9.45-9.04-10.91-14.31-3.17,5.17-6.69,9.87-10.29,14.7l-3.9,5.23c-.17.23-.41.31-.63.28,2.22-4.04,5.01-7.75,7.74-11.6,2.28-3.21,5.56-7.42,6.72-10.85,2.04,4.1,4.44,8.05,8.29,11.34,3.48,2.98,7.06,5.41,11.08,7.6,5.75,3.14,11.54,5.9,17.48,8.53,1.78.78,2.86,2.02,3.91,3.4Z" style="fill:#ea9d73;"/><path d="M282.28,153.89v3.9c-1.68,1.18-3.2,2.57-5.14,3.58-7.09,3.71-13.66-.4-19.27-4.39,0-1.13-.23-2.28-.07-3.42l.56-.13c5.57,3.62,11.5,6.07,18.13,3.3,2.02-.84,4.08-1.65,5.78-2.84Z" style="fill:#e9a079;"/><path d="M303.44,118.54c.93-.12,1.97.06,2.67.65,2.49,2.09.83,7.84-2.8,10.59-.81.61-1.81.78-2.7.29,1.22-3.88,2.02-7.72,2.83-11.54Z" style="fill:#efa87c;"/><path d="M286.06,105.46c3.09-.27,6.06.71,8.49,2.66.47.37,1.03.59,1.1,1.16-.22-.02-.59-.02-.9-.18-8.07-4.35-15.29,1.05-16.36.58-1.16-.51,3.1-3.82,7.66-4.22Z" style="fill:#714642;"/><path d="M286.06,105.46c-4.57.4-8.82,3.71-7.66,4.22,1.07.47,8.29-4.93,16.36-.58.3.16.68.17.9.18.83.46,1.88,1.07,2.82,1.32,2.09,2.75,3.28,6.07,3.84,9.6.21.22,1.06-2.62,1.13-1.67-.81,3.82-1.61,7.66-2.83,11.54.89.48,1.89.32,2.7-.29,3.63-2.75,5.29-8.5,2.8-10.59-.7-.59-1.74-.78-2.67-.65.16-.75.36-2.34,1.58-2.34,1.98,0,3.52,1.86,3.94,3.7.84,3.6-1.36,7.01-2.87,9.74-.46.41-1.03,1.06-1.3,1.62-1.67,1.22-2.59,2.86-5.41,2.33-3.47,8.8-9.51,15.01-17.09,20.3-1.7,1.19-3.77,2-5.78,2.84-6.63,2.77-12.56.32-18.13-3.3l-.56.13c.04-.28-.06-.56-.36-.78-7.01-5.09-12.47-11.27-15.69-19.37-2.85,1.06-4.5-1.23-6.13-2.7l-.25-.44c-1.6-2.82-5.43-7.67-2.65-12.33.15-.24,2.86-2.96,4.12-.99.52.81.81,1.66,1.53,2.38.03-2.7-.26-5.07.47-7.62.99-3.47,2.47-6.7,4.41-9.53.21.03.45-.05.63-.28l3.9-5.23c3.6-4.83,7.12-9.53,10.29-14.7,1.46,5.28,6.75,11.17,10.91,14.31,3.53,2.66,7.37,4.59,11.35,6.5,1.98.95,3.95,1.63,5.73,2.67Z" style="fill:#f8c39f;"/><path d="M240.49,129.83c-.85.78-2.13.42-3.03-.21-2.76-1.96-4.31-5.47-3.63-8.78.34-1.64,2.16-2.91,3.51-2,.75.92.73,2.42,1.08,3.5l2.06,7.5Z" style="fill:#efa97d;"/><path d="M261.98,109.7c-6.29-2.71-10.34-3.33-16.99-.3,4.56-5.03,12.62-5.08,17.37-.58.21.2.29.43.32.57.05.24-.36.46-.7.31Z" style="fill:#744945;"/><path d="M273.37,132.64c2.12.33-1.95,2.63-6.07.87-.22-.09-.3-.31-.32-.42-.16-1.08,5.46-.6,6.39-.45Z" style="fill:#ae6652;"/><path d="M281.86,138.49c-1.12,1.98-2.69,3.82-4.44,5.42-2.1,1.92-4.79,2.79-7.63,2.81-5.22.05-8.21-3.56-10.45-7.69-.03-.05.22-.22.14-.28.49.55,1.4.85,1.85,1.31,4.21,4.29,14.11,3.83,18.24-.18.85-.12,1.44-1.12,2.28-1.41Z" style="fill:#db6c62;"/><path d="M282.32,137.21c-.41.78-1.46.47-2.21.94-.09.18-.07.5-.31.39-.02-.12.1-.3-.1-.34-.08-.01-.14.01-.36.07-3.03.74-6.02.73-9.1.79-3.24.06-6.3-.29-9.34-.75.59.09-2.89-.94-2.49-1.06,7.84-.63,15.94-.14,23.92-.04Z" style="fill:#db6c60;"/><path d="M281.86,138.49c-.85.29-1.44,1.29-2.28,1.41-.14-.45.21-.89.22-1.36.24.11.22-.21.31-.39.75-.47,1.8-.16,2.21-.94l1.08-.17c-.57.44-1.2.85-1.54,1.45Z" style="fill:#6e2e2a;"/><path d="M258.41,137.25c-.4.11,3.07,1.14,2.49,1.06.1.6.48,1.14.45,1.77-.45-.46-1.37-.77-1.85-1.31-.46-.52-.85-1.15-1.54-1.45.23-.22.35-.05.46-.06Z" style="fill:#74302b;"/><path d="M279.8,138.53c-.01.47-.37.91-.22,1.36-4.13,4.01-14.03,4.47-18.24.18.03-.62-.35-1.16-.45-1.77,3.04.46,6.1.81,9.34.75,3.08-.06,6.07-.05,9.1-.79.22-.05.29-.08.36-.07.2.04.09.21.1.34Z" style="fill:#fdfcfd;"/><path d="M262.62,120.11c-.29.28.34.79-.21.91-.39-1.55-1.63-2.77-2.69-3.95-.35-.39-.76-.77-1.33-.75-.18-.28-.67-.44-.9-.61-1.21-1.27-3.85-1.33-5.58-.72-1.13.4-2.23.71-3.16,1.76-.37.42-.93.75-1.44.74-.86-.77-2.37-.95-2.95-2.33.42.05.98.23,1.36.24.46.02,1.43.53,1.84.12,2.85-3.04,7.52-3.96,11.07-1.42,1.86,1.33,2.87,3.29,3.61,5.36.1.29.12.61.37.64Z" style="fill:#39241e;"/><path d="M262.62,120.11c-.26-.03-.27-.35-.37-.64-.74-2.07-1.76-4.03-3.61-5.36-3.55-2.54-8.22-1.62-11.07,1.42-.41.41-1.38-.1-1.84-.12,1.47-2.43,4.06-4.08,7.12-4.19,5.66-.2,9.25,3.03,10.06,8.44-.04.24-.24.35-.28.44Z" style="fill:#ed9f73;"/><path d="M257.49,115.72c-.2.04-.61.15-.66.38-.86-.72-2.14-.95-3.07-.27s-1.41,1.82-.91,2.86,1.45,1.72,2.69,1.51c1.34-.23,2.41-1.49,2.24-2.72.36-.29.54-.7.61-1.15.57-.02.97.36,1.33.75-.46,2.37-.74,3.87-3.53,4.67-1.38-.03-2.3-.27-3.59-.77-1.71-1.64-1.88-3.96-.68-5.98,1.72-.61,4.37-.55,5.58.72Z" style="fill:#2e607d;"/><path d="M251.92,115c-1.21,2.02-1.03,4.34.68,5.98-1.98-.75-3.95-1.78-5.28-3.48.51.01,1.07-.32,1.44-.74.93-1.05,2.03-1.36,3.16-1.76Z" style="fill:#fcfcfd;"/><path d="M262.41,121.02c-1.9.99-4.2.76-6.22.72,2.79-.8,3.07-2.3,3.53-4.67,1.06,1.17,2.3,2.4,2.69,3.95Z" style="fill:#fcfcfd;"/><path d="M258.39,116.32c-.06.45-.25.86-.61,1.15-.36-.06-.71-.16-.93-.53-.13-.21-.09-.55-.02-.85.05-.23.46-.34.66-.38.22.16.71.33.9.61Z" style="fill:#f9f8fb;"/><path d="M256.83,116.09c-.07.3-.11.64.02.85.23.37.57.47.93.53.17,1.23-.9,2.5-2.24,2.72-1.24.21-2.21-.52-2.69-1.51-.5-1.04-.04-2.17.91-2.86s2.21-.45,3.07.27Z" style="fill:#222b31;"/><path d="M295.2,115.45c.4.06.89-.38,1.4-.22-.85,1.08-1.96,1.81-3.19,2.11-1.07.26-2.38-2.25-4.66-2.31-1.55-.04-3.66-1.74-7.43,2.16-.96,1-2.33,2.04-2.87,3.62-.29-.16-.1-.62-.03-.84.84-2.35,1.95-4.7,4.22-6.11,3.56-2.22,7.9-1.23,10.76,1.65.41.41,1.36-.13,1.8-.06Z" style="fill:#39241e;"/><path d="M295.2,115.45c-.44-.06-1.4.47-1.8.06-2.87-2.88-7.2-3.87-10.76-1.65-2.27,1.41-3.38,3.76-4.22,6.11-.24.1-.2-.33-.37-.51.28-2.39,1.52-4.7,3.41-6.29,3.94-3.33,11.23-2.29,13.75,2.28Z" style="fill:#ed9e73;"/><path d="M293.4,117.34c-.03.2.31.19.44.17-1.82,1.77-3.83,2.92-6,3.7,2-1.39,2.5-4.32.9-6.18,2.29.05,3.59,2.57,4.66,2.31Z" style="fill:#fdfdfd;"/><path d="M281.31,117.2c-.33,2.04,1.01,3.82,2.94,4.5-1.93.02-4.27.34-5.81-.88.54-1.58,1.91-2.62,2.87-3.62Z" style="fill:#fbfcfd;"/><path d="M288.74,115.03c1.59,1.86,1.1,4.79-.9,6.18-1.24.44-2.29.47-3.58.48-1.93-.68-3.28-2.46-2.94-4.5,3.77-3.91,5.88-2.2,7.43-2.16Z" style="fill:#2e607d;"/><path d="M286.71,115.66c-.1.58.35,1.13.9,1.17.09.23.4.19.43.35.13.59-.33,2.64-2.1,2.99-1.07.21-2.05-.29-2.63-1.25-.49-.82-.48-1.93.37-2.75.79-.76,2.1-.98,3.03-.52Z" style="fill:#232b32;"/><path d="M287.6,116.83c-.55-.05-1-.6-.9-1.17.21-.35.85-.59,1.19-.37.23.15.53.49.45.86-.07.32-.38.68-.74.68Z" style="fill:#f9f8fa;"/><rect x="21.43" y="244.61" width="171.29" height="39.43" rx="4.18" ry="4.18" style="fill:#45423f;"/><rect x="21.37" y="244" width="167.5" height="37.09" style="fill:none;"/><path d="M42.15,256.34c.77-.16,1.97-.28,3.2-.28,1.75,0,2.88.3,3.73.98.71.52,1.13,1.32,1.13,2.38,0,1.3-.87,2.44-2.3,2.96v.04c1.29.32,2.8,1.38,2.8,3.39,0,1.16-.46,2.04-1.15,2.71-.95.86-2.48,1.26-4.69,1.26-1.21,0-2.14-.08-2.72-.16v-13.28ZM43.9,261.87h1.59c1.85,0,2.94-.96,2.94-2.26,0-1.58-1.21-2.2-2.98-2.2-.81,0-1.27.06-1.55.12v4.35ZM43.9,268.34c.34.06.85.08,1.47.08,1.81,0,3.48-.66,3.48-2.62,0-1.84-1.59-2.6-3.5-2.6h-1.45v5.15Z" style="fill:#fff;"/><path d="M53.01,262.99c0-1.14-.02-2.12-.08-3.03h1.55l.06,1.9h.08c.44-1.3,1.51-2.12,2.7-2.12.2,0,.34.02.5.06v1.66c-.18-.04-.36-.06-.6-.06-1.25,0-2.14.94-2.38,2.26-.04.24-.08.52-.08.82v5.17h-1.75v-6.67Z" style="fill:#fff;"/><path d="M68.22,264.73c0,3.59-2.5,5.15-4.85,5.15-2.64,0-4.67-1.92-4.67-4.99,0-3.25,2.13-5.15,4.83-5.15s4.69,2.02,4.69,4.99ZM60.48,264.83c0,2.12,1.23,3.73,2.96,3.73s2.96-1.58,2.96-3.77c0-1.64-.83-3.73-2.92-3.73s-3,1.92-3,3.77Z" style="fill:#fff;"/><path d="M79.27,264.73c0,3.59-2.5,5.15-4.85,5.15-2.64,0-4.67-1.92-4.67-4.99,0-3.25,2.13-5.15,4.83-5.15s4.69,2.02,4.69,4.99ZM71.54,264.83c0,2.12,1.23,3.73,2.96,3.73s2.96-1.58,2.96-3.77c0-1.64-.83-3.73-2.92-3.73s-3,1.92-3,3.77Z" style="fill:#fff;"/><path d="M83.26,264.41h.04c.24-.34.58-.76.87-1.1l2.86-3.35h2.13l-3.77,3.99,4.29,5.71h-2.16l-3.36-4.65-.91,1v3.65h-1.75v-14.22h1.75v8.98Z" style="fill:#fff;"/><path d="M91.95,265.13c.04,2.38,1.57,3.37,3.34,3.37,1.27,0,2.03-.22,2.7-.5l.3,1.26c-.62.28-1.69.6-3.24.6-3,0-4.79-1.96-4.79-4.89s1.73-5.23,4.57-5.23c3.18,0,4.03,2.78,4.03,4.57,0,.36-.04.64-.06.82h-6.85ZM97.14,263.87c.02-1.12-.46-2.87-2.46-2.87-1.79,0-2.58,1.64-2.72,2.87h5.18Z" style="fill:#fff;"/><path d="M107.14,257.64h-4.13v-1.48h10.05v1.48h-4.15v12.02h-1.77v-12.02Z" style="fill:#fff;"/><path d="M114.37,255.44h1.77v6.05h.04c.28-.5.73-.94,1.27-1.24.52-.3,1.15-.5,1.81-.5,1.31,0,3.4.8,3.4,4.15v5.77h-1.77v-5.57c0-1.56-.58-2.89-2.26-2.89-1.15,0-2.05.8-2.38,1.76-.1.24-.12.5-.12.84v5.85h-1.77v-14.22Z" style="fill:#fff;"/><path d="M134.37,264.73c0,3.59-2.5,5.15-4.85,5.15-2.64,0-4.67-1.92-4.67-4.99,0-3.25,2.13-5.15,4.83-5.15s4.69,2.02,4.69,4.99ZM126.64,264.83c0,2.12,1.23,3.73,2.96,3.73s2.96-1.58,2.96-3.77c0-1.64-.83-3.73-2.92-3.73s-3,1.92-3,3.77Z" style="fill:#fff;"/><path d="M136.61,262.59c0-1-.02-1.82-.08-2.62h1.55l.08,1.56h.06c.54-.92,1.45-1.78,3.06-1.78,1.33,0,2.34.8,2.76,1.94h.04c.3-.54.69-.96,1.09-1.26.58-.44,1.23-.68,2.16-.68,1.29,0,3.2.84,3.2,4.21v5.71h-1.73v-5.49c0-1.86-.69-2.99-2.12-2.99-1.01,0-1.79.74-2.09,1.6-.08.24-.14.56-.14.88v5.99h-1.73v-5.81c0-1.54-.68-2.66-2.03-2.66-1.11,0-1.91.88-2.2,1.76-.1.26-.14.56-.14.86v5.85h-1.73v-7.07Z" style="fill:#fff;"/><path d="M158.81,269.66l-.14-1.22h-.06c-.54.76-1.59,1.44-2.98,1.44-1.97,0-2.98-1.38-2.98-2.79,0-2.34,2.09-3.63,5.86-3.61v-.2c0-.8-.22-2.24-2.22-2.24-.91,0-1.85.28-2.54.72l-.4-1.16c.81-.52,1.97-.86,3.2-.86,2.98,0,3.71,2.02,3.71,3.97v3.63c0,.84.04,1.66.16,2.32h-1.61ZM158.55,264.71c-1.93-.04-4.13.3-4.13,2.18,0,1.14.77,1.68,1.67,1.68,1.27,0,2.07-.8,2.36-1.62.06-.18.1-.38.1-.56v-1.68Z" style="fill:#fff;"/><path d="M162.88,267.86c.52.34,1.45.7,2.34.7,1.29,0,1.89-.64,1.89-1.44,0-.84-.5-1.3-1.81-1.78-1.75-.62-2.58-1.58-2.58-2.75,0-1.56,1.27-2.84,3.36-2.84.99,0,1.85.28,2.4.6l-.44,1.28c-.38-.24-1.09-.56-1.99-.56-1.05,0-1.63.6-1.63,1.32,0,.8.58,1.16,1.85,1.64,1.69.64,2.56,1.48,2.56,2.92,0,1.7-1.33,2.91-3.65,2.91-1.07,0-2.05-.26-2.74-.66l.44-1.34Z" style="fill:#fff;"/></g></svg>