<?xml version="1.0" encoding="UTF-8"?><svg id="uuid-15034928-bba2-4e5b-ade7-180542834a7b" xmlns="http://www.w3.org/2000/svg" xmlns:xlink="http://www.w3.org/1999/xlink" viewBox="0 0 542.37 305.09"><defs><clipPath id="uuid-13d2c9f0-5fcc-4703-b1f1-dc44a999d3a3"><rect x=".62" y="-2" width="542.37" height="305.09" rx="11.62" ry="11.62" style="fill:none;"/></clipPath><radialGradient id="uuid-d4a7c660-f97a-46f4-aeeb-56e4225de105" cx="271.37" cy="151" fx="271.37" fy="151" r="221.38" gradientTransform="translate(2.33 29.55) scale(.99 .8)" gradientUnits="userSpaceOnUse"><stop offset="0" stop-color="#001b3f"/><stop offset=".23" stop-color="#001736"/><stop offset=".6" stop-color="#000d1f"/><stop offset="1" stop-color="#000"/></radialGradient><radialGradient id="uuid-280ebe87-a781-4433-b09e-7abfea4a6946" cx="277.41" cy="141.8" fx="277.41" fy="141.8" r="86.76" gradientTransform="translate(1.71 32.68) scale(.99 .8)" xlink:href="#uuid-d4a7c660-f97a-46f4-aeeb-56e4225de105"/></defs><rect x="-1285.78" y="-134.34" width="1965.95" height="1217.24" style="fill:#232323;"/><g style="clip-path:url(#uuid-13d2c9f0-5fcc-4703-b1f1-dc44a999d3a3);"><rect x=".61" y="-2.78" width="542.88" height="306.63" style="fill:url(#uuid-d4a7c660-f97a-46f4-aeeb-56e4225de105);"/><ellipse cx="277.18" cy="145.72" rx="86.15" ry="86.45" style="fill:url(#uuid-280ebe87-a781-4433-b09e-7abfea4a6946);"/><path d="M304.45,165.52l21.5,7.26c1.85.63,3.59,1.21,5.21,2.26,6.94,4.52,8.61,13.22,10,20.63-5.5,5.56-11.54,11.41-18.23,15.64l-2.1-16.61c-1.56,6.84-2.78,13.34-3.65,19.94-24.5,13.28-56,13.62-80.18-.2.21.04.23-.22.19-.48-1.09-6.57-2.1-13.02-3.68-19.5l-2.06,16.81c-6.75-3.86-12.61-9.15-17.94-14.98-.27-.3-.36-.55-.3-.85,1.25-6.4,2.28-12.59,6.81-17.83,1.53-1.77,3.25-2.91,5.36-3.75,4.76-1.89,9.47-3.55,14.42-5.12l10.07-3.19c.43,1.31.56,2.63.97,4.12,3.85,14.04,17.06,22.04,31.35,19.62,12.13-2.06,20.51-12.03,22.26-23.79Z" style="fill:#4b78b7;"/><path d="M322.93,211.31c-1.88,1.19-3.79,2.27-5.75,3.34.87-6.61,2.09-13.11,3.65-19.94l2.1,16.61Z" style="fill:#2e5ea1;"/><path d="M237,214.45l-5.55-3.17,2.06-16.81c1.58,6.48,2.59,12.94,3.68,19.5.04.25.02.52-.19.48Z" style="fill:#2e5ea1;"/><path d="M304.45,165.52c-1.74,11.76-10.13,21.73-22.26,23.79-14.29,2.43-27.5-5.58-31.35-19.62-.41-1.5-.54-2.82-.97-4.12l4.17-1.21c.55,7.04,4.31,13.59,10.42,17.4,7.97,4.98,18.23,4.8,26.01-.49,5.18-3.52,8.4-9.1,9.34-15.15.1-.64.26-1.28.22-1.93,1.49.41,2.95.85,4.41,1.34Z" style="fill:#305fa2;"/><path d="M306.6,76.62c1.1,1.03-2.08,4.67-3.15,5.64-6.71,6.08-16.19,5.85-23.52,8.6-2.3.86-3.84,2.57-4.51,4.84-2.48-.33-4.87-.94-7.24-1.67-1.38-3.26-.67-7.04,1.95-9.71,4.25-4.31,11.9-4.05,17.36-3.04,3.59.66,7.09.99,10.57.5-3.94-.42-7.59-.99-11.45-1.8-9.88-2.09-21.45.97-24.19,11.6-.39-.16-1-.25-1.31-.58.28-.09.33-.37.24-.76-1.13-4.79,3.04-9.51,7.09-11.55,3.3-1.66,6.97-2.46,10.68-2.62-1.24.06.76.25.65-.23-.07-.29-.46-.03-.65-.06-4.06-.62-8.11-.02-11.79,1.74s-5.98,4.76-7.05,8.76c-1.56-6.05,1.37-11.29,7.08-13.18,4.05-1.34,8.29-1.26,12.47-.37,1.97.42,3.74,1.12,5.78,1.37-1.05-1.02-2.15-1.52-3.37-1.99-6.31-2.41-14.69-3.25-20.49.93-3.45,2.48-5.63,6.3-5.48,10.64.08,2.35,1.39,4.24,2.98,5.8.52.51,1.07.87,1.36,1.44l-1.68-.11c-2.35.94-4.39,3.08-4.66,5.63l-.81,7.64c-.3,2.86-1.49,5.43-1.38,8.49l.28,7.7c-.38-.02-1.42-3.52-1.57-3.97l-1.34-3.99-.95-3.74c-1.69-6.25-1.75-12.68-.12-18.94.92-3.55,2.72-6.43,5.8-8.63.12-3.82,1.8-7.1,4.74-9.68,8.29-7.25,20.58-4.88,29.45.12l7.9,4.45c3.18,1.79,7.36,3.12,10.32.74Z" style="fill:#785853;"/><path d="M305.1,112.13c-.29,1.11-2.2,8.34-3.01,8.4.29-3.19.36-6.41.19-9.72-.12-2.36-1.12-4.37-1.35-6.66l-.73-7.03c-.16-1.5-.86-2.93-2.13-4.14-2.35.91-4.68,1.74-7.09,2.24-5.11,1.05-10.39,1.19-15.56.49.66-2.27,2.21-3.98,4.51-4.84,7.34-2.75,16.81-2.52,23.52-8.6,1.07-.97,4.25-4.61,3.15-5.64.48-.85,1.01-1.62,1.4-2.79,1.88,2.78.96,5.87-.04,8.88,1,0,1.59-.62,2.63-.73-1.07,2.56-2.88,4.49-4.95,6.14,2.48,7.76,1.47,16.37-.54,24.01Z" style="fill:#53342d;"/><path d="M261.12,91c-.16.18-.36-.07-.49-.08-.29-.57-.83-.93-1.36-1.44-1.59-1.56-2.9-3.45-2.98-5.8-.15-4.34,2.03-8.16,5.48-10.64,5.8-4.18,14.18-3.34,20.49-.93,1.22.47,2.32.97,3.37,1.99-2.04-.25-3.81-.95-5.78-1.37-4.19-.89-8.42-.98-12.47.37-5.71,1.89-8.64,7.14-7.08,13.18,1.07-4,3.42-7.02,7.05-8.76s7.73-2.36,11.79-1.74c.19.03.58-.23.65.06.11.48-1.89.29-.65.23-3.71.17-7.38.96-10.68,2.62-4.05,2.04-8.22,6.76-7.09,11.55.09.38.04.67-.24.76Z" style="fill:#604039;"/><path d="M268.18,94.03l-3.98-1.23-1.77-1.21c2.74-10.63,14.3-13.7,24.19-11.6,3.86.82,7.51,1.38,11.45,1.8-3.48.49-6.98.16-10.57-.5-5.46-1.01-13.11-1.27-17.36,3.04-2.62,2.66-3.33,6.45-1.95,9.71Z" style="fill:#5f3f38;"/><path d="M266.4,152.55c-.18.04-.22.11-.17.19l.2.36c.87,1.6,1.95,3.13,3.59,4.16,1.38.86,2.94,1.94,4.5,2.24-.09.16-.04.61.24.34,4.34,1.87,8.6,3.9,13.17,5.58,3.66,1.35,7.31,1.59,11.01.71.35-.08.64-.15.89-.01-.94,6.06-4.16,11.63-9.34,15.15-7.78,5.29-18.04,5.47-26.01.49-6.11-3.82-9.87-10.36-10.42-17.4,2.57-.75,5.1-1.67,7.89-2.26.42-4.51.47-8.79.5-13.15,1.15,1.28,2.69,2.45,3.97,3.6Z" style="fill:#f7b68b;"/><path d="M300.2,97.11l.73,7.03c.24,2.29,1.23,4.3,1.35,6.66.17,3.32.1,6.53-.19,9.72l-.16,1.73-.71,6.85c-.03.28.11.48.34.43-.73.54-.78,4.37-.83,5.74-.12,3.44-4.9,8.77-7.3,11.24-.44.45-.7.98-1.07,1.32-3.5,3.16-7.16,7.2-12.16,8.13-.11-.21,0-.3.26-.46,6.42-3.99,10.81-11.68,13.36-18.56,2.9-7.81,4.22-15.98,4.69-24.12.23-.04.52.11.87.1-.35-1.51-1.46-2.42-2.43-3.45.12.05.14-.06.11-.22-.66-3.41-1.98-6.45-3.22-9.52,1.91-.72,4.04-.91,6-1.97.23-.12-.12-.57.04-.64.09-.04.19-.06.32-.02Z" style="fill:#f2af88;"/><path d="M292.3,154.87c.08,2.4.32,4.79.54,7.32l7.19,2c.05.65-.12,1.3-.22,1.93-.25-.14-.54-.07-.89.01-3.7.89-7.35.65-11.01-.71-4.57-1.69-8.82-3.71-13.17-5.58-.29.27-.34-.18-.24-.34,3.12.6,6.25.57,9.3-.52,2.83-1.01,5.4-2.37,7.91-4.04.21-.14.43-.15.59-.06Z" style="fill:#efa375;"/><path d="M292.3,154.87c-.16-.1-.38-.08-.59.06-2.51,1.67-5.07,3.03-7.91,4.04-3.04,1.09-6.18,1.12-9.3.52-1.56-.3-3.12-1.38-4.5-2.24-1.64-1.03-2.71-2.55-3.59-4.16l-.2-.36c-.04-.08,0-.15.17-.19,2.68,2.39,5.98,3.88,9.64,4.09,1.56.09,2.8-.44,4.16-.69,4.99-.92,8.66-4.97,12.16-8.13.31,2.33-.13,4.72-.06,7.04Z" style="fill:#e69362;"/><path d="M301.56,129.53c-.23.06-.37-.15-.34-.43l.71-6.85.16-1.73c.81-.06,2.72-7.29,3.01-8.4,1.99-.08,3.78,1.16,4.1,3.3.59,3.95-1,7.67-3.89,10.36-1.37,1.28-2.37,2.7-3.76,3.73Z" style="fill:#e7986b;"/><path d="M264.2,92.79l3.98,1.23c2.37.73,4.76,1.34,7.24,1.67,5.18.7,10.46.55,15.56-.49.31.19.76.07-.04.49.92,1.25,1.98,2.4,2.52,3.85-.2.19-.52.24-.94.29-10.82,1.27-20.81-1.56-29.79-7.19.64-.27,1.07.02,1.46.15Z" style="fill:#f1ae86;"/><path d="M296.95,109.47c.97,1.02,2.08,1.94,2.43,3.45-.34,0-.63-.14-.87-.1-1.4-.88-3.1-1.14-4.87-1.09-3.77.1-7.37.42-11.14,1.03-.13-1.2.05-2.2.48-3.22,3.63-.19,11.08-1.43,13.97-.06Z" style="fill:#6f514d;"/><path d="M300.2,97.11c-.13-.04-.23-.02-.32.02-.16.07.19.52-.04.64-1.96,1.06-4.09,1.25-6,1.97-.15-.02-.24-.15-.38-.19-.54-1.45-1.6-2.6-2.52-3.85.8-.42.34-.29.04-.49,2.42-.5,4.75-1.33,7.09-2.24,1.27,1.21,1.97,2.63,2.13,4.14Z" style="fill:#e5986f;"/><path d="M249.46,112.31l1.34,3.99c-1.34,1.09-.89,3.89.47,5.03,1.73,1.45.12,2.34,1.27,2.25.03,1.57.27,4.64.02,5.75-2.12-1.61-4.11-3.58-5.76-5.83s-2.24-5.32-1.89-8.04c.31-2.4,2.46-3.69,4.56-3.16Z" style="fill:#f5b48c;"/><path d="M252.37,120.27c.04,1.09.15,2.2.17,3.31-1.15.09.46-.8-1.27-2.25-1.36-1.14-1.81-3.94-.47-5.03.15.45,1.19,3.96,1.57,3.97Z" style="fill:#eea479;"/><path d="M260.62,90.92c.14,0,.33.26.49.08.31.34.92.42,1.31.58l1.77,1.21c-.4-.12-.82-.42-1.46-.15,8.98,5.63,18.97,8.46,29.79,7.19.42-.05.74-.1.94-.29.14.04.23.17.38.19,1.24,3.07,2.56,6.11,3.22,9.52.03.16,0,.27-.11.22-2.89-1.37-10.35-.13-13.97.06-.43,1.02-.61,2.02-.48,3.22,3.78-.62,7.37-.93,11.14-1.03,1.77-.05,3.47.21,4.87,1.09-.47,8.14-1.78,16.31-4.69,24.12-2.56,6.88-6.95,14.57-13.36,18.56-.27.17-.37.26-.26.46-1.36.25-2.6.78-4.16.69-3.66-.21-6.96-1.7-9.64-4.09-1.29-1.15-2.82-2.31-3.97-3.6-2.57-2.87-8.64-9.39-9.29-13.06-.39-2.23-.09-4.45-.58-6.56.26-1.11,0-4.18-.02-5.75-.02-1.1-.13-2.21-.17-3.31l-.28-7.7c-.11-3.05,1.08-5.63,1.38-8.49l.81-7.64c.27-2.54,2.3-4.69,4.66-5.63l1.68.11Z" style="fill:#fbc9a5;"/><path d="M271.84,112.73c-4.23-.57-8.27-1.08-12.48-1.01-1.65.03-2.98.95-4.64,1.32.62-1.81,2.03-3.36,3.78-3.99s10.6.3,12.94.53c.26,1.08.49,1.88.39,3.15Z" style="fill:#6f514d;"/><path d="M280.69,132.42c-2.2,1.03-4.76,1.21-7.02.26-.64-.27-1.11-.87-.7-1.56,2.48,1.51,5.38,1.35,7.99.16.35.03.21.91-.28,1.14Z" style="fill:#f6b289;"/><path d="M261.94,119.91c-1.07-.2-2.42-.18-3.37-1.3l.3-.54c.82-.65,1.45-1.54,2.73-1.83-.83,1.32-.56,2.69.34,3.66Z" style="fill:#faf9f8;"/><path d="M288.15,119.85c-.89-.19-2.12.02-2.92-1.17.22-.22.33-.64.42-.92.74-.61,1.25-1.44,2.29-1.77-.81,1.39-.74,2.85.21,3.86Z" style="fill:#f9f9f8;"/><path d="M268.83,118.04c.05.23.42.58.18.83-.91.91-2.04.97-3.03,1.15,1.11-.85,1.26-2.31.71-3.81,1.01.26,1.62,1.09,2.14,1.84Z" style="fill:#f9f9f8;"/><path d="M285.69,139.61c-1.95,3.31-5.34,5.1-9.19,4.9-4.51-.24-8.22-3.4-9.11-7.86,1.26-.5,2.39-.67,3.64-.67l12.28-.03c1.23,0,2.4.23,3.46.69.02,1.13-.52,2.03-1.08,2.97Z" style="fill:#f8b58b;"/><path d="M282.38,140.87c-4.89,2.61-11.99,1.13-14.52-4,6.18,1.54,12.29,1.54,18.45,0-.83,1.91-2.22,3.01-3.94,4Z" style="fill:#fefdfd;"/><path d="M268.83,118.04c-.52-.74-1.13-1.57-2.14-1.84.55,1.5.4,2.96-.71,3.81-1.52.28-2.69.14-4.03-.11-.9-.98-1.18-2.35-.34-3.66-1.28.28-1.91,1.17-2.73,1.83.79-2.5,3.67-3.91,6.41-3.33,1.78.38,3.18,1.65,3.56,3.3Z" style="fill:#472614;"/><path d="M262.67,118.08c.62-.12.96-.74.83-1.36.48-.46,1.15-.39,1.61-.12.67.4.76,1.12.46,1.75-.36.75-.94.97-1.61.97-.82,0-1.17-.51-1.29-1.23Z" style="fill:#220f08;"/><path d="M263.5,116.72c.13.61-.21,1.23-.83,1.36-.43-.07-.86-.38-.84-.78s.38-.69.69-.78c.37-.1.64.09.98.2Z" style="fill:#fafbfc;"/><path d="M295.66,118.3c-.64-.94-1.6-1.73-2.8-2.05.8,1.48.44,3-.77,3.8-1.48.26-2.62.09-3.95-.19-.94-1.01-1.01-2.47-.21-3.86-1.04.34-1.55,1.16-2.29,1.77.7-2.07,2.81-3.35,5.17-3.16,2.23.17,4.41,1.69,4.85,3.69Z" style="fill:#492613;"/><path d="M295.66,118.3c.05.24.35.34.15.52-.08.07-.31.04-.4.1-1.15.88-2.25.93-3.32,1.12,1.21-.79,1.57-2.32.77-3.8,1.2.32,2.16,1.11,2.8,2.05Z" style="fill:#fafaf9;"/><path d="M291.46,117.86c.22.08.46.1.67,0,.1,0,.2.76.05.9-.59.51-1.98.89-2.84.29-.61-.42-.72-1.23-.4-1.86.21-.42,1-.97,1.67-.44.14.11-.05.59-.05.75,0-.15.96,1.02.89.35Z" style="fill:#221007;"/><path d="M292.13,117.86c-.21.1-.46.07-.67,0-.25-.11-.44-.23-.52-.41-.1-.24-.16-.56.02-.72.41-.36.92-.41,1.28,0,.27.31.28.86-.11,1.14Z" style="fill:#f9f9fb;"/><rect x="34.61" y="244.73" width="170.05" height="39.37" rx="4.16" ry="4.16" style="fill:#45423f;"/><rect x="42.85" y="244.19" width="166.3" height="37.03" style="fill:none;"/><path d="M85.87,263.88c-.1-1.88-.22-4.14-.2-5.82h-.06c-.46,1.58-1.02,3.26-1.7,5.12l-2.38,6.54h-1.32l-2.18-6.42c-.64-1.9-1.18-3.64-1.56-5.24h-.04c-.04,1.68-.14,3.94-.26,5.96l-.36,5.78h-1.66l.94-13.48h2.22l2.3,6.52c.56,1.66,1.02,3.14,1.36,4.54h.06c.34-1.36.82-2.84,1.42-4.54l2.4-6.52h2.22l.84,13.48h-1.7l-.34-5.92Z" style="fill:#fff;"/><path d="M96.01,269.8l-.14-1.22h-.06c-.54.76-1.58,1.44-2.96,1.44-1.96,0-2.96-1.38-2.96-2.78,0-2.34,2.08-3.62,5.82-3.6v-.2c0-.8-.22-2.24-2.2-2.24-.9,0-1.84.28-2.52.72l-.4-1.16c.8-.52,1.96-.86,3.18-.86,2.96,0,3.68,2.02,3.68,3.96v3.62c0,.84.04,1.66.16,2.32h-1.6ZM95.75,264.86c-1.92-.04-4.1.3-4.1,2.18,0,1.14.76,1.68,1.66,1.68,1.26,0,2.06-.8,2.34-1.62.06-.18.1-.38.1-.56v-1.68Z" style="fill:#fff;"/><path d="M102.33,257.34v2.78h2.52v1.34h-2.52v5.22c0,1.2.34,1.88,1.32,1.88.46,0,.8-.06,1.02-.12l.08,1.32c-.34.14-.88.24-1.56.24-.82,0-1.48-.26-1.9-.74-.5-.52-.68-1.38-.68-2.52v-5.28h-1.5v-1.34h1.5v-2.32l1.72-.46Z" style="fill:#fff;"/><path d="M108.95,257.34v2.78h2.52v1.34h-2.52v5.22c0,1.2.34,1.88,1.32,1.88.46,0,.8-.06,1.02-.12l.08,1.32c-.34.14-.88.24-1.56.24-.82,0-1.48-.26-1.9-.74-.5-.52-.68-1.38-.68-2.52v-5.28h-1.5v-1.34h1.5v-2.32l1.72-.46Z" style="fill:#fff;"/><path d="M114.31,265.28c.04,2.38,1.56,3.36,3.32,3.36,1.26,0,2.02-.22,2.68-.5l.3,1.26c-.62.28-1.68.6-3.22.6-2.98,0-4.76-1.96-4.76-4.88s1.72-5.22,4.54-5.22c3.16,0,4,2.78,4,4.56,0,.36-.04.64-.06.82h-6.8ZM119.47,264.02c.02-1.12-.46-2.86-2.44-2.86-1.78,0-2.56,1.64-2.7,2.86h5.14Z" style="fill:#fff;"/><path d="M132.11,264.88c0,3.58-2.48,5.14-4.82,5.14-2.62,0-4.64-1.92-4.64-4.98,0-3.24,2.12-5.14,4.8-5.14s4.66,2.02,4.66,4.98ZM124.43,264.98c0,2.12,1.22,3.72,2.94,3.72s2.94-1.58,2.94-3.76c0-1.64-.82-3.72-2.9-3.72s-2.98,1.92-2.98,3.76Z" style="fill:#fff;"/><path d="M140.37,257.8h-4.1v-1.48h9.98v1.48h-4.12v12h-1.76v-12Z" style="fill:#fff;"/><path d="M147.25,265.28c.04,2.38,1.56,3.36,3.32,3.36,1.26,0,2.02-.22,2.68-.5l.3,1.26c-.62.28-1.68.6-3.22.6-2.98,0-4.76-1.96-4.76-4.88s1.72-5.22,4.54-5.22c3.16,0,4,2.78,4,4.56,0,.36-.04.64-.06.82h-6.8ZM152.41,264.02c.02-1.12-.46-2.86-2.44-2.86-1.78,0-2.56,1.64-2.7,2.86h5.14Z" style="fill:#fff;"/><path d="M156.05,268c.52.34,1.44.7,2.32.7,1.28,0,1.88-.64,1.88-1.44,0-.84-.5-1.3-1.8-1.78-1.74-.62-2.56-1.58-2.56-2.74,0-1.56,1.26-2.84,3.34-2.84.98,0,1.84.28,2.38.6l-.44,1.28c-.38-.24-1.08-.56-1.98-.56-1.04,0-1.62.6-1.62,1.32,0,.8.58,1.16,1.84,1.64,1.68.64,2.54,1.48,2.54,2.92,0,1.7-1.32,2.9-3.62,2.9-1.06,0-2.04-.26-2.72-.66l.44-1.34Z" style="fill:#fff;"/><path d="M166.33,257.34v2.78h2.52v1.34h-2.52v5.22c0,1.2.34,1.88,1.32,1.88.46,0,.8-.06,1.02-.12l.08,1.32c-.34.14-.88.24-1.56.24-.82,0-1.48-.26-1.9-.74-.5-.52-.68-1.38-.68-2.52v-5.28h-1.5v-1.34h1.5v-2.32l1.72-.46Z" style="fill:#fff;"/><path d="M176.19,269.8l-.14-1.22h-.06c-.54.76-1.58,1.44-2.96,1.44-1.96,0-2.96-1.38-2.96-2.78,0-2.34,2.08-3.62,5.82-3.6v-.2c0-.8-.22-2.24-2.2-2.24-.9,0-1.84.28-2.52.72l-.4-1.16c.8-.52,1.96-.86,3.18-.86,2.96,0,3.68,2.02,3.68,3.96v3.62c0,.84.04,1.66.16,2.32h-1.6ZM175.93,264.86c-1.92-.04-4.1.3-4.1,2.18,0,1.14.76,1.68,1.66,1.68,1.26,0,2.06-.8,2.34-1.62.06-.18.1-.38.1-.56v-1.68Z" style="fill:#fff;"/></g></svg>